<svg xmlns="http://www.w3.org/2000/svg" viewBox="0 0 375 812" width="375" height="812" style="background-color:#F8FAFC;font-family:'Plus Jakarta Sans',-apple-system,BlinkMacSystemFont,'Segoe UI',Roboto,sans-serif;">
  <defs><filter id="elev" x="-20%" y="-20%" width="140%" height="140%"><feDropShadow dx="0" dy="2" stdDeviation="10" flood-color="#0F172A" flood-opacity="0.05"/></filter></defs>
  <rect width="375" height="812" fill="#F8FAFC"/>
  <g transform="translate(24,18)" fill="#0F172A"><text x="0" y="12" font-size="13" font-weight="700">9:41</text>
    <g transform="translate(285,2)"><rect x="0" y="5" width="3" height="5" rx="1"/><rect x="5" y="3" width="3" height="7" rx="1"/><rect x="10" y="1" width="3" height="9" rx="1"/><rect x="19" y="1" width="18" height="9" rx="2.5" fill="none" stroke="#0F172A" stroke-width="1.1"/><rect x="21" y="3" width="12" height="5" rx="1"/></g></g>
  <g transform="translate(0,44)"><rect width="375" height="44" fill="#FFFFFF"/><line x1="0" y1="44" x2="375" y2="44" stroke="#E2E8F0"/>
    <text x="20" y="28" font-size="15" font-weight="800" fill="#0F172A" letter-spacing="-0.4">Surv<tspan fill="#1E3A8A">Scribe</tspan></text>
    <g transform="translate(279,13)"><rect width="76" height="18" rx="9" fill="#F0FDF4" stroke="#BBF7D0"/><circle cx="11" cy="9" r="3" fill="#059669"/><text x="19" y="12.5" font-size="9" font-weight="700" fill="#065F46">Synced</text></g></g>
  <g transform="translate(0,88)"><rect width="375" height="58" fill="#FFFFFF"/><line x1="0" y1="58" x2="375" y2="58" stroke="#E2E8F0"/>
    <text x="20" y="19" font-size="9.5" font-weight="700" fill="#475569" letter-spacing="0.3" font-family="'JetBrains Mono',monospace">SS-2026-00101 · ABC MANUFACTURING PVT. LTD.</text>
    <text x="20" y="37" font-size="13" font-weight="700" fill="#0F172A">Stage 12 of 15 · Salvage Verification &amp; Disposal</text>
    <rect x="20" y="45" width="335" height="5" rx="2.5" fill="#F1F5F9"/><rect x="20" y="45" width="268" height="5" rx="2.5" fill="#1E3A8A"/></g>

  <!-- Disposal modes -->
  <g transform="translate(20,158)"><text x="0" y="8" font-size="12" font-weight="700" fill="#0F172A">Disposal Mode</text>
    <rect x="0" y="16" width="335" height="42" rx="8" fill="#FFFFFF" stroke="#CBD5E1"/>
    <circle cx="18" cy="37" r="7" fill="none" stroke="#CBD5E1" stroke-width="2"/>
    <text x="34" y="34" font-size="10.5" font-weight="700" fill="#0F172A">Mode A · Retained by Insured</text>
    <text x="34" y="48" font-size="8.5" fill="#64748B">Agreed % of assessed value or lump sum; consent letter</text>
    <rect x="0" y="66" width="335" height="42" rx="8" fill="#EFF6FF" stroke="#1E3A8A"/>
    <circle cx="18" cy="87" r="7" fill="#1E3A8A"/><circle cx="18" cy="87" r="2.5" fill="#FFFFFF"/>
    <text x="34" y="84" font-size="10.5" font-weight="700" fill="#1E3A8A">Mode B · Sold to Scrap Buyer</text>
    <text x="34" y="98" font-size="8.5" fill="#475569">Buyer details, sale invoice, GST + payment proof</text>
    <rect x="0" y="116" width="335" height="42" rx="8" fill="#FFFFFF" stroke="#CBD5E1"/>
    <circle cx="18" cy="137" r="7" fill="none" stroke="#CBD5E1" stroke-width="2"/>
    <text x="34" y="134" font-size="10.5" font-weight="700" fill="#0F172A">Mode C · Tender floated by Insurer</text>
    <text x="34" y="148" font-size="8.5" fill="#64748B">Tender quotations grid, highest bidder, sale proceeds</text></g>

  <!-- Salvage item + calc -->
  <g transform="translate(20,336)"><rect width="335" height="150" rx="10" fill="#FFFFFF" stroke="#E2E8F0"/>
    <text x="16" y="24" font-size="12" font-weight="700" fill="#0F172A">Salvage Item · Burnt copper &amp; MS scrap</text>
    <rect x="16" y="34" width="303" height="76" rx="8" fill="#F8FAFC" stroke="#E2E8F0"/>
    <text x="28" y="54" font-size="10" fill="#475569">Weight</text><text x="307" y="54" text-anchor="end" font-size="11" font-weight="700" fill="#0F172A" font-family="'JetBrains Mono',monospace">450 Kg</text>
    <text x="28" y="74" font-size="10" fill="#475569">Scrap rate / Kg</text><text x="307" y="74" text-anchor="end" font-size="11" font-weight="700" fill="#0F172A" font-family="'JetBrains Mono',monospace">₹250</text>
    <line x1="28" y1="84" x2="307" y2="84" stroke="#CBD5E1"/>
    <text x="28" y="102" font-size="11" font-weight="800" fill="#0F172A">Estimated value</text><text x="307" y="102" text-anchor="end" font-size="12" font-weight="800" fill="#1E3A8A" font-family="'JetBrains Mono',monospace">₹1,12,500</text>
    <text x="16" y="130" font-size="9" font-weight="700" fill="#334155">Winning buyer</text>
    <text x="16" y="143" font-size="9.5" fill="#475569">Shree Metal Traders, Kurla · sale invoice SI-2231 · ₹1,18,500 (RTGS)</text></g>

  <!-- Linkage -->
  <g transform="translate(20,500)"><rect width="335" height="86" rx="10" fill="#FFFFFF" stroke="#E2E8F0"/>
    <text x="16" y="24" font-size="12" font-weight="700" fill="#0F172A">Assessment Linkage</text>
    <rect x="16" y="32" width="303" height="26" rx="6" fill="#EFF6FF" stroke="#BFDBFE"/>
    <text x="26" y="49" font-size="10" font-weight="700" fill="#1E3A8A">Net Salvage Realization</text>
    <text x="309" y="49" text-anchor="end" font-size="12" font-weight="800" fill="#1E3A8A" font-family="'JetBrains Mono',monospace">₹1,18,500</text>
    <text x="16" y="76" font-size="10" font-weight="700" fill="#0F172A">Apply salvage deduction to Loss Assessment Section F</text>
    <rect x="290" y="65" width="40" height="22" rx="11" fill="#1E3A8A"/><circle cx="319" cy="76" r="9" fill="#FFFFFF"/></g>

  <!-- AI benchmark -->
  <g transform="translate(20,600)"><rect width="335" height="46" rx="8" fill="#FFFBEB" stroke="#FDE68A"/>
    <text x="14" y="19" font-size="9.5" fill="#92400E">Market scrap benchmark: copper ₹720–760/Kg, MS melting</text>
    <text x="14" y="33" font-size="9.5" fill="#92400E">₹38–42/Kg. Current bid appears reasonable.</text></g>

  <g transform="translate(0,748)"><rect width="375" height="64" fill="#FFFFFF"/><line x1="0" y1="0" x2="375" y2="0" stroke="#E2E8F0"/>
    <rect x="20" y="12" width="335" height="42" rx="6" fill="#1E3A8A"/>
    <text x="187" y="38" text-anchor="middle" font-size="13" font-weight="700" fill="#FFFFFF">Save Salvage &amp; Proceed to Liability Review  →</text></g>
</svg>
