<svg xmlns="http://www.w3.org/2000/svg" viewBox="0 0 375 812" width="375" height="812" style="background-color:#F8FAFC;font-family:'Plus Jakarta Sans',-apple-system,BlinkMacSystemFont,'Segoe UI',Roboto,sans-serif;">
  <defs><filter id="elev" x="-20%" y="-20%" width="140%" height="140%"><feDropShadow dx="0" dy="2" stdDeviation="10" flood-color="#0F172A" flood-opacity="0.05"/></filter></defs>
  <rect width="375" height="812" fill="#F8FAFC"/>
  <g transform="translate(24,18)" fill="#0F172A"><text x="0" y="12" font-size="13" font-weight="700">9:41</text>
    <g transform="translate(285,2)"><rect x="0" y="5" width="3" height="5" rx="1"/><rect x="5" y="3" width="3" height="7" rx="1"/><rect x="10" y="1" width="3" height="9" rx="1"/><rect x="19" y="1" width="18" height="9" rx="2.5" fill="none" stroke="#0F172A" stroke-width="1.1"/><rect x="21" y="3" width="12" height="5" rx="1"/></g></g>
  <g transform="translate(0,44)"><rect width="375" height="44" fill="#FFFFFF"/><line x1="0" y1="44" x2="375" y2="44" stroke="#E2E8F0"/>
    <text x="20" y="28" font-size="15" font-weight="800" fill="#0F172A" letter-spacing="-0.4">Surv<tspan fill="#1E3A8A">Scribe</tspan></text>
    <g transform="translate(258,13)"><rect width="97" height="18" rx="9" fill="#EFF6FF" stroke="#BFDBFE"/><text x="48" y="12.5" text-anchor="middle" font-size="9" font-weight="700" fill="#1E3A8A">Report 82% complete</text></g></g>
  <g transform="translate(0,88)"><rect width="375" height="58" fill="#FFFFFF"/><line x1="0" y1="58" x2="375" y2="58" stroke="#E2E8F0"/>
    <text x="20" y="19" font-size="9.5" font-weight="700" fill="#475569" letter-spacing="0.3" font-family="'JetBrains Mono',monospace">SS-2026-00101 · ABC MANUFACTURING PVT. LTD.</text>
    <text x="20" y="37" font-size="13" font-weight="700" fill="#0F172A">Stage 14 of 15 · Final Survey Report Generator</text>
    <rect x="20" y="45" width="335" height="5" rx="2.5" fill="#F1F5F9"/><rect x="20" y="45" width="312" height="5" rx="2.5" fill="#1E3A8A"/></g>

  <!-- Section navigator -->
  <g transform="translate(20,158)">
    <g font-size="12" font-weight="800">
      <rect x="0" y="0" width="34" height="34" rx="8" fill="#FFFFFF" stroke="#CBD5E1"/><text x="17" y="19" text-anchor="middle" fill="#475569">A</text><circle cx="17" cy="27" r="2.5" fill="#059669"/>
      <rect x="40" y="0" width="34" height="34" rx="8" fill="#FFFFFF" stroke="#CBD5E1"/><text x="57" y="19" text-anchor="middle" fill="#475569">B</text><circle cx="57" cy="27" r="2.5" fill="#059669"/>
      <rect x="80" y="0" width="34" height="34" rx="8" fill="#1E3A8A"/><text x="97" y="19" text-anchor="middle" fill="#FFFFFF">C</text><circle cx="97" cy="27" r="2.5" fill="#D97706"/>
      <rect x="120" y="0" width="34" height="34" rx="8" fill="#FFFFFF" stroke="#CBD5E1"/><text x="137" y="19" text-anchor="middle" fill="#475569">D</text><circle cx="137" cy="27" r="2.5" fill="#D97706"/>
      <rect x="160" y="0" width="34" height="34" rx="8" fill="#FFFFFF" stroke="#CBD5E1"/><text x="177" y="19" text-anchor="middle" fill="#475569">E</text><circle cx="177" cy="27" r="2.5" fill="#059669"/>
      <rect x="200" y="0" width="34" height="34" rx="8" fill="#FFFFFF" stroke="#CBD5E1"/><text x="217" y="19" text-anchor="middle" fill="#475569">F</text><circle cx="217" cy="27" r="2.5" fill="#059669"/>
      <rect x="240" y="0" width="34" height="34" rx="8" fill="#FFFFFF" stroke="#CBD5E1"/><text x="257" y="19" text-anchor="middle" fill="#475569">G</text><circle cx="257" cy="27" r="2.5" fill="#059669"/>
      <rect x="280" y="0" width="26" height="34" rx="8" fill="#FFFFFF" stroke="#CBD5E1"/><text x="293" y="19" text-anchor="middle" fill="#475569">H</text><circle cx="293" cy="27" r="2.5" fill="#D97706"/>
      <rect x="312" y="0" width="23" height="34" rx="8" fill="#FFFFFF" stroke="#CBD5E1"/><text x="323" y="19" text-anchor="middle" fill="#475569">I</text><circle cx="323" cy="27" r="2.5" fill="#D97706"/>
    </g></g>

  <!-- Section C editor -->
  <g transform="translate(20,212)"><rect width="335" height="264" rx="10" fill="#FFFFFF" stroke="#E2E8F0"/>
    <text x="16" y="24" font-size="12" font-weight="700" fill="#0F172A">Section C · Cause &amp; Circumstances of Loss</text>
    <rect x="238" y="12" width="82" height="16" rx="4" fill="#EFF6FF" stroke="#BFDBFE"/><text x="279" y="24" text-anchor="middle" font-size="8" font-weight="800" fill="#1E3A8A">AI-4 DRAFTS</text>
    <rect x="16" y="34" width="106" height="22" rx="11" fill="#1E3A8A"/><text x="69" y="49" text-anchor="middle" font-size="9" font-weight="700" fill="#FFFFFF">Standard Surveyor</text>
    <rect x="128" y="34" width="70" height="22" rx="11" fill="#FFFFFF" stroke="#CBD5E1"/><text x="163" y="49" text-anchor="middle" font-size="9" font-weight="700" fill="#475569">Technical</text>
    <rect x="204" y="34" width="62" height="22" rx="11" fill="#FFFFFF" stroke="#CBD5E1"/><text x="235" y="49" text-anchor="middle" font-size="9" font-weight="700" fill="#475569">Concise</text>
    <rect x="16" y="64" width="303" height="106" rx="8" fill="#FFFFFF" stroke="#E2E8F0"/>
    <text x="26" y="82" font-size="9" fill="#334155">During our physical inspection on site on 30 August 2026, we</text>
    <text x="26" y="96" font-size="9" fill="#334155">observed that the fire had originated in the ground-floor</text>
    <text x="26" y="110" font-size="9" fill="#334155">mezzanine control panel. The insured has stated the cause to be</text>
    <text x="26" y="124" font-size="9" fill="#334155">an electrical short circuit at approximately 02:30 hrs. The Andheri</text>
    <text x="26" y="138" font-size="9" fill="#334155">fire station recorded turnout at 04:15 hrs.</text>
    <text x="26" y="156" font-size="9" font-weight="700" fill="#991B1B">[SURVEYOR TO VERIFY] the reason for the notification interval.</text>
    <rect x="16" y="178" width="303" height="48" rx="8" fill="#F8FAFC" stroke="#E2E8F0"/>
    <text x="26" y="193" font-size="8" font-weight="800" fill="#1E3A8A">SOURCE FACTS USED (ZERO-HALLUCINATION)</text>
    <text x="26" y="207" font-size="8.5" fill="#475569">Stage 5 timeline (6 events) · FIR 0421/2026 · Fire Brigade turnout</text>
    <text x="26" y="219" font-size="8.5" fill="#475569">04:15 · Stage 6 damage register (4 items) · Ownership: Established</text>
    <rect x="16" y="232" width="303" height="24" rx="6" fill="#F8FAFC" stroke="#CBD5E1"/>
    <text x="167" y="248" text-anchor="middle" font-size="10" font-weight="700" fill="#1E3A8A">Regenerate AI Draft</text></g>

  <!-- Section F peek -->
  <g transform="translate(20,490)"><rect width="335" height="118" rx="10" fill="#FFFFFF" stroke="#E2E8F0"/>
    <text x="16" y="22" font-size="12" font-weight="700" fill="#0F172A">Section F · Claim Assessment Statement</text>
    <rect x="1" y="30" width="333" height="20" fill="#F1F5F9"/>
    <g font-size="8.5" font-weight="700" fill="#475569"><text x="14" y="43">HEAD</text><text x="200" y="43" text-anchor="end">CLAIMED</text><text x="262" y="43" text-anchor="end">ASSESSED</text><text x="321" y="43" text-anchor="end">NET</text></g>
    <g font-size="9.5" font-family="'JetBrains Mono',monospace">
      <text x="14" y="63" font-family="'Plus Jakarta Sans'" font-weight="600" fill="#0F172A">Plant &amp; Machinery</text><text x="200" y="63" text-anchor="end" fill="#0F172A">14,50,000</text><text x="262" y="63" text-anchor="end" fill="#0F172A">12,00,000</text><text x="321" y="63" text-anchor="end" fill="#0F172A">8,32,500</text>
      <text x="14" y="80" font-family="'Plus Jakarta Sans'" font-weight="600" fill="#0F172A">Building / Civil</text><text x="200" y="80" text-anchor="end" fill="#0F172A">6,20,000</text><text x="262" y="80" text-anchor="end" fill="#0F172A">5,40,000</text><text x="321" y="80" text-anchor="end" fill="#0F172A">4,55,000</text>
    </g>
    <line x1="10" y1="88" x2="324" y2="88" stroke="#0F172A" stroke-width="2"/>
    <rect x="1" y="89" width="333" height="24" fill="#F8FAFC"/>
    <text x="14" y="105" font-size="10" font-weight="800" fill="#0F172A">Total</text>
    <text x="200" y="105" text-anchor="end" font-size="10" font-weight="800" fill="#0F172A" font-family="'JetBrains Mono',monospace">23,80,000</text>
    <text x="262" y="105" text-anchor="end" font-size="10" font-weight="800" fill="#0F172A" font-family="'JetBrains Mono',monospace">20,20,000</text>
    <text x="321" y="105" text-anchor="end" font-size="10" font-weight="800" fill="#1E3A8A" font-family="'JetBrains Mono',monospace">15,25,500</text></g>

  <!-- CTA -->
  <g transform="translate(0,700)"><rect width="375" height="112" fill="#FFFFFF"/><line x1="0" y1="0" x2="375" y2="0" stroke="#E2E8F0"/>
    <rect x="20" y="14" width="335" height="40" rx="6" fill="#1E3A8A"/>
    <text x="187" y="39" text-anchor="middle" font-size="12.5" font-weight="700" fill="#FFFFFF">Export Editable Word (.docx)</text>
    <rect x="20" y="62" width="335" height="38" rx="6" fill="#FFFFFF" stroke="#CBD5E1"/>
    <text x="187" y="85" text-anchor="middle" font-size="12" font-weight="700" fill="#0F172A">Proceed to Pre-Submission Review  →</text></g>
</svg>
