<svg xmlns="http://www.w3.org/2000/svg" viewBox="0 0 375 812" width="375" height="812" style="background-color:#F8FAFC;font-family:'Plus Jakarta Sans',-apple-system,BlinkMacSystemFont,'Segoe UI',Roboto,sans-serif;">
  <defs><filter id="elev" x="-20%" y="-20%" width="140%" height="140%"><feDropShadow dx="0" dy="2" stdDeviation="10" flood-color="#0F172A" flood-opacity="0.05"/></filter></defs>
  <rect width="375" height="812" fill="#F8FAFC"/>
  <g transform="translate(24,18)" fill="#0F172A"><text x="0" y="12" font-size="13" font-weight="700">9:41</text>
    <g transform="translate(285,2)"><rect x="0" y="5" width="3" height="5" rx="1"/><rect x="5" y="3" width="3" height="7" rx="1"/><rect x="10" y="1" width="3" height="9" rx="1"/><rect x="19" y="1" width="18" height="9" rx="2.5" fill="none" stroke="#0F172A" stroke-width="1.1"/><rect x="21" y="3" width="12" height="5" rx="1"/></g></g>
  <g transform="translate(0,44)"><rect width="375" height="44" fill="#FFFFFF"/><line x1="0" y1="44" x2="375" y2="44" stroke="#E2E8F0"/>
    <text x="20" y="28" font-size="15" font-weight="800" fill="#0F172A" letter-spacing="-0.4">Surv<tspan fill="#1E3A8A">Scribe</tspan></text>
    <g transform="translate(279,13)"><rect width="76" height="18" rx="9" fill="#F0FDF4" stroke="#BBF7D0"/><circle cx="11" cy="9" r="3" fill="#059669"/><text x="19" y="12.5" font-size="9" font-weight="700" fill="#065F46">Synced</text></g></g>
  <g transform="translate(0,88)"><rect width="375" height="58" fill="#FFFFFF"/><line x1="0" y1="58" x2="375" y2="58" stroke="#E2E8F0"/>
    <text x="20" y="19" font-size="9.5" font-weight="700" fill="#475569" letter-spacing="0.3" font-family="'JetBrains Mono',monospace">SS-2026-00101 · ABC MANUFACTURING PVT. LTD.</text>
    <text x="20" y="37" font-size="13" font-weight="700" fill="#0F172A">Stage 8 of 15 · Document Requisition &amp; PSR</text>
    <rect x="20" y="45" width="335" height="5" rx="2.5" fill="#F1F5F9"/><rect x="20" y="45" width="178" height="5" rx="2.5" fill="#1E3A8A"/></g>

  <!-- Segmented -->
  <g transform="translate(20,158)"><rect width="335" height="34" rx="8" fill="#F1F5F9" stroke="#E2E8F0"/>
    <rect x="3" y="3" width="164" height="28" rx="6" fill="#FFFFFF" stroke="#CBD5E1"/><text x="85" y="21" text-anchor="middle" font-size="10.5" font-weight="700" fill="#1E3A8A">1 · Request Documents</text>
    <text x="252" y="21" text-anchor="middle" font-size="10.5" font-weight="600" fill="#64748B">2 · Preliminary Report</text></g>

  <!-- Doc checklist -->
  <g transform="translate(20,206)"><rect width="335" height="208" rx="10" fill="#FFFFFF" stroke="#E2E8F0"/>
    <text x="16" y="24" font-size="12" font-weight="700" fill="#0F172A">Peril preset: Fire</text>
    <g font-size="10" fill="#0F172A">
      <rect x="16" y="34" width="16" height="16" rx="4" fill="#1E3A8A"/><path d="M20 42l2.5 2.5 5-6" fill="none" stroke="#FFFFFF" stroke-width="2" stroke-linecap="round"/><text x="40" y="46">Completed Claim Form</text>
      <rect x="16" y="58" width="16" height="16" rx="4" fill="#1E3A8A"/><path d="M20 66l2.5 2.5 5-6" fill="none" stroke="#FFFFFF" stroke-width="2" stroke-linecap="round"/><text x="40" y="70">Detailed Claim Bill</text>
      <rect x="16" y="82" width="16" height="16" rx="4" fill="#1E3A8A"/><path d="M20 90l2.5 2.5 5-6" fill="none" stroke="#FFFFFF" stroke-width="2" stroke-linecap="round"/><text x="40" y="94">Original Purchase Invoices</text>
      <rect x="16" y="106" width="16" height="16" rx="4" fill="#FFFFFF" stroke="#CBD5E1"/><text x="40" y="118">Stock Statements (last 12 months)</text>
      <rect x="16" y="130" width="16" height="16" rx="4" fill="#1E3A8A"/><path d="M20 138l2.5 2.5 5-6" fill="none" stroke="#FFFFFF" stroke-width="2" stroke-linecap="round"/><text x="40" y="142">Police FIR + Fire Brigade Report</text>
      <rect x="16" y="154" width="16" height="16" rx="4" fill="#1E3A8A"/><path d="M20 162l2.5 2.5 5-6" fill="none" stroke="#FFFFFF" stroke-width="2" stroke-linecap="round"/><text x="40" y="166">Repair Quotations &amp; OEM Estimates</text>
    </g>
    <text x="16" y="192" font-size="9.5" font-weight="700" fill="#64748B">5 of 6 selected · due 15 days from issue</text></g>

  <!-- Dispatch -->
  <g transform="translate(20,428)"><rect width="335" height="34" rx="6" fill="#FFFFFF" stroke="#CBD5E1"/>
    <g transform="translate(120,10)" fill="none" stroke="#1E3A8A" stroke-width="1.6"><path d="M0 14l14-7L0 0l2 7-2 7Z" stroke-linejoin="round"/></g>
    <text x="146" y="22" font-size="11" font-weight="700" fill="#1E3A8A">Send Requisition to Insured</text></g>

  <!-- Reserve -->
  <g transform="translate(20,476)"><rect width="335" height="98" rx="8" fill="#EFF6FF" stroke="#BFDBFE"/>
    <text x="14" y="22" font-size="9" font-weight="800" fill="#1E3A8A">PRELIMINARY LOSS RESERVE — SURVEYOR ENTRY ONLY</text>
    <rect x="14" y="30" width="307" height="36" rx="6" fill="#FFFFFF" stroke="#BFDBFE"/>
    <text x="24" y="53" font-size="14" font-weight="800" fill="#1E3A8A" font-family="'JetBrains Mono',monospace">₹</text>
    <text x="311" y="53" text-anchor="end" font-size="14" font-weight="800" fill="#0F172A" font-family="'JetBrains Mono',monospace">38,00,000.00</text>
    <text x="14" y="84" font-size="9" fill="#64748B">AI never generates or suggests this figure (zero-hallucination guardrail).</text></g>

  <!-- Export -->
  <g transform="translate(20,588)"><rect width="335" height="34" rx="6" fill="#FFFFFF" stroke="#CBD5E1"/>
    <g transform="translate(110,9)" fill="none" stroke="#1E3A8A" stroke-width="1.6"><path d="M8 0v11m0 0l-3-3m3 3l3-3M1 15h14" stroke-linecap="round"/></g>
    <text x="134" y="22" font-size="11" font-weight="700" fill="#1E3A8A">Generate &amp; Export PSR (.docx)</text></g>

  <g transform="translate(0,748)"><rect width="375" height="64" fill="#FFFFFF"/><line x1="0" y1="0" x2="375" y2="0" stroke="#E2E8F0"/>
    <rect x="20" y="12" width="335" height="42" rx="6" fill="#1E3A8A"/>
    <text x="187" y="38" text-anchor="middle" font-size="13" font-weight="700" fill="#FFFFFF">Save &amp; Proceed to Follow-Up Visits  →</text></g>
</svg>
