<svg xmlns="http://www.w3.org/2000/svg" viewBox="0 0 375 812" width="375" height="812" style="background-color:#F8FAFC;font-family:'Plus Jakarta Sans',-apple-system,BlinkMacSystemFont,'Segoe UI',Roboto,sans-serif;">
  <defs><filter id="elev" x="-20%" y="-20%" width="140%" height="140%"><feDropShadow dx="0" dy="2" stdDeviation="10" flood-color="#0F172A" flood-opacity="0.05"/></filter></defs>
  <rect width="375" height="812" fill="#F8FAFC"/>
  <g transform="translate(24,18)" fill="#0F172A"><text x="0" y="12" font-size="13" font-weight="700">9:41</text>
    <g transform="translate(285,2)"><rect x="0" y="5" width="3" height="5" rx="1"/><rect x="5" y="3" width="3" height="7" rx="1"/><rect x="10" y="1" width="3" height="9" rx="1"/><rect x="19" y="1" width="18" height="9" rx="2.5" fill="none" stroke="#0F172A" stroke-width="1.1"/><rect x="21" y="3" width="12" height="5" rx="1"/></g></g>
  <g transform="translate(0,44)"><rect width="375" height="44" fill="#FFFFFF"/><line x1="0" y1="44" x2="375" y2="44" stroke="#E2E8F0"/>
    <text x="20" y="28" font-size="15" font-weight="800" fill="#0F172A" letter-spacing="-0.4">Surv<tspan fill="#1E3A8A">Scribe</tspan></text>
    <g transform="translate(266,13)"><rect width="89" height="18" rx="9" fill="#FFFBEB" stroke="#FDE68A"/><circle cx="11" cy="9" r="3" fill="#D97706"/><text x="19" y="12.5" font-size="9" font-weight="700" fill="#92400E">2 queued</text></g></g>
  <g transform="translate(0,88)"><rect width="375" height="58" fill="#FFFFFF"/><line x1="0" y1="58" x2="375" y2="58" stroke="#E2E8F0"/>
    <text x="20" y="19" font-size="9.5" font-weight="700" fill="#475569" letter-spacing="0.3" font-family="'JetBrains Mono',monospace">SS-2026-00101 · ABC MANUFACTURING PVT. LTD.</text>
    <text x="20" y="37" font-size="13" font-weight="700" fill="#0F172A">Stage 3 of 15 · Insured Contact &amp; Scheduling</text>
    <rect x="20" y="45" width="335" height="5" rx="2.5" fill="#F1F5F9"/><rect x="20" y="45" width="67" height="5" rx="2.5" fill="#1E3A8A"/></g>

  <!-- Contact card -->
  <g transform="translate(20,160)" filter="url(#elev)"><rect width="335" height="96" rx="10" fill="#FFFFFF" stroke="#E2E8F0"/></g>
  <g transform="translate(20,160)">
    <text x="16" y="26" font-size="13" font-weight="700" fill="#0F172A">Mr. R. Sharma · Plant Manager</text>
    <text x="16" y="43" font-size="10.5" fill="#64748B">+91 98201 44725 · sharma@abcmfg.in</text>
    <rect x="16" y="54" width="150" height="30" rx="6" fill="#1E3A8A"/>
    <g transform="translate(48,62)" fill="none" stroke="#FFFFFF" stroke-width="1.5"><path d="M0 1c0 7 5 12 12 12l1-3-4-2-1.5 1.5A9 9 0 0 1 3 4L4.5 2.5 2.5 -1 0 0Z" stroke-linejoin="round"/></g>
    <text x="98" y="73" text-anchor="middle" font-size="11" font-weight="700" fill="#FFFFFF">Call</text>
    <rect x="176" y="54" width="143" height="30" rx="6" fill="#F0FDF4" stroke="#BBF7D0"/>
    <g transform="translate(206,62)" fill="none" stroke="#065F46" stroke-width="1.5"><path d="M0 14l1-3A6 6 0 1 1 3 13L0 14Z" stroke-linejoin="round"/></g>
    <text x="255" y="73" text-anchor="middle" font-size="11" font-weight="700" fill="#065F46">WhatsApp</text>
  </g>

  <!-- Schedule -->
  <g transform="translate(20,272)"><rect width="335" height="82" rx="10" fill="#FFFFFF" stroke="#E2E8F0"/>
    <text x="16" y="24" font-size="12" font-weight="700" fill="#0F172A">Schedule Site Visit</text>
    <rect x="16" y="34" width="150" height="34" rx="6" fill="#FFFFFF" stroke="#CBD5E1"/><text x="28" y="55" font-size="11.5" fill="#0F172A">30 Aug 2026</text>
    <rect x="176" y="34" width="143" height="34" rx="6" fill="#FFFFFF" stroke="#CBD5E1"/><text x="188" y="55" font-size="11.5" fill="#0F172A">10:00 AM</text></g>

  <!-- Preservation notice -->
  <g transform="translate(20,370)"><rect width="335" height="128" rx="10" fill="#FFFFFF" stroke="#E2E8F0"/>
    <text x="16" y="24" font-size="12" font-weight="700" fill="#0F172A">Evidence &amp; Loss Preservation Notice</text>
    <rect x="16" y="32" width="303" height="48" rx="6" fill="#F8FAFC" stroke="#E2E8F0"/>
    <text x="26" y="49" font-size="9.5" fill="#334155">Preserve all damaged property in its present state. Permit no</text>
    <text x="26" y="62" font-size="9.5" fill="#334155">repairs or disposal without written consent. Retain burnt copper</text>
    <text x="26" y="75" font-size="9.5" fill="#334155">windings and control-panel remnants for joint inspection.</text>
    <rect x="16" y="90" width="70" height="26" rx="6" fill="#FFFFFF" stroke="#CBD5E1"/><text x="51" y="107" text-anchor="middle" font-size="9.5" font-weight="700" fill="#1E3A8A">WhatsApp</text>
    <rect x="94" y="90" width="52" height="26" rx="6" fill="#FFFFFF" stroke="#CBD5E1"/><text x="120" y="107" text-anchor="middle" font-size="9.5" font-weight="700" fill="#1E3A8A">Email</text>
    <rect x="154" y="90" width="52" height="26" rx="6" fill="#FFFFFF" stroke="#CBD5E1"/><text x="180" y="107" text-anchor="middle" font-size="9.5" font-weight="700" fill="#1E3A8A">Copy</text>
    <rect x="214" y="90" width="52" height="26" rx="6" fill="#FFFFFF" stroke="#CBD5E1"/><text x="240" y="107" text-anchor="middle" font-size="9.5" font-weight="700" fill="#1E3A8A">PDF</text></g>

  <!-- Call log -->
  <g transform="translate(20,514)"><rect width="335" height="180" rx="10" fill="#FFFFFF" stroke="#E2E8F0"/>
    <text x="16" y="24" font-size="12" font-weight="700" fill="#0F172A">Communication Log</text>
    <line x1="20" y1="36" x2="20" y2="160" stroke="#E2E8F0" stroke-width="2"/>
    <circle cx="20" cy="48" r="4" fill="#1E3A8A"/>
    <text x="34" y="44" font-size="9" font-weight="700" fill="#64748B" font-family="'JetBrains Mono',monospace">29 AUG · 09:40</text>
    <text x="34" y="59" font-size="11" font-weight="600" fill="#0F172A">Mr. Sharma · Site Confirmed</text>
    <text x="34" y="73" font-size="9.5" fill="#475569">Fire extinguished 28 Aug 06:00 PM. Factory accessible 30 Aug.</text>
    <circle cx="20" cy="104" r="4" fill="#94A3B8"/>
    <text x="34" y="100" font-size="9" font-weight="700" fill="#64748B" font-family="'JetBrains Mono',monospace">28 AUG · 06:20 PM</text>
    <text x="34" y="115" font-size="11" font-weight="600" fill="#0F172A">Ms. Iyer (Broker) · Connected</text>
    <text x="34" y="129" font-size="9.5" fill="#475569">Appointment forwarded. Claim form to follow by email.</text>
    <rect x="16" y="144" width="303" height="24" rx="6" fill="#FFFFFF" stroke="#CBD5E1" stroke-dasharray="3 3"/>
    <text x="167" y="160" text-anchor="middle" font-size="10" font-weight="700" fill="#1E3A8A">+ Add Log Entry</text></g>

  <g transform="translate(0,748)"><rect width="375" height="64" fill="#FFFFFF"/><line x1="0" y1="0" x2="375" y2="0" stroke="#E2E8F0"/>
    <rect x="20" y="12" width="335" height="42" rx="6" fill="#1E3A8A"/>
    <text x="187" y="38" text-anchor="middle" font-size="13" font-weight="700" fill="#FFFFFF">Schedule Visit &amp; Proceed to Risk Location  →</text></g>
</svg>
